<svg width="14" height="14" viewBox="0 0 14 14" fill="none" xmlns="http://www.w3.org/2000/svg">
<path d="M13.061 3.57374C12.435 2.47434 11.586 1.60394 10.5136 0.962352C9.44098 0.320729 8.27005 0 6.99994 0C5.72998 0 4.55867 0.320828 3.48632 0.962352C2.41381 1.60391 1.56477 2.47434 0.938811 3.57374C0.312948 4.67311 0 5.87363 0 7.17526C0 8.73882 0.445016 10.1448 1.33527 11.3936C2.22543 12.6425 3.37539 13.5067 4.78504 13.9862C4.94913 14.0175 5.0706 13.9955 5.14958 13.9209C5.22859 13.8462 5.26804 13.7527 5.26804 13.6407C5.26804 13.6221 5.26648 13.4539 5.26345 13.1362C5.26032 12.8185 5.25885 12.5413 5.25885 12.3048L5.04921 12.342C4.91554 12.3671 4.74692 12.3778 4.54335 12.3747C4.33986 12.3718 4.12862 12.35 3.90992 12.3093C3.69111 12.269 3.4876 12.1756 3.29922 12.0292C3.11093 11.8829 2.97727 11.6913 2.89825 11.4547L2.80711 11.2397C2.74636 11.0966 2.65072 10.9376 2.52005 10.7633C2.38939 10.5889 2.25726 10.4706 2.12359 10.4083L2.05978 10.3615C2.01726 10.3304 1.9778 10.2928 1.94131 10.2493C1.90485 10.2057 1.87756 10.1621 1.85933 10.1185C1.84107 10.0748 1.8562 10.039 1.90489 10.0108C1.95357 9.98273 2.04155 9.96909 2.16921 9.96909L2.35143 9.997C2.47297 10.022 2.6233 10.0965 2.80261 10.2212C2.98183 10.3457 3.12916 10.5077 3.24463 10.7069C3.38445 10.9623 3.55291 11.157 3.75049 11.2909C3.94791 11.4249 4.14695 11.4917 4.34743 11.4917C4.54791 11.4917 4.72106 11.4761 4.86696 11.4451C5.01269 11.414 5.14942 11.3672 5.27708 11.3049C5.33176 10.8874 5.48066 10.5667 5.72363 10.3425C5.37732 10.3052 5.06597 10.249 4.78941 10.1743C4.51302 10.0995 4.2274 9.97809 3.93274 9.80975C3.63793 9.64165 3.39336 9.4329 3.19898 9.18387C3.00456 8.93471 2.84501 8.6076 2.72054 8.20283C2.596 7.79791 2.53372 7.3308 2.53372 6.80139C2.53372 6.04759 2.77378 5.40613 3.25382 4.87665C3.02895 4.30994 3.05018 3.67463 3.31757 2.9708C3.49379 2.91468 3.75512 2.95679 4.10143 3.09688C4.4478 3.23704 4.7014 3.35711 4.86249 3.45665C5.02357 3.55617 5.15264 3.6405 5.24988 3.70889C5.81509 3.547 6.39837 3.46604 6.99987 3.46604C7.60138 3.46604 8.18478 3.547 8.75002 3.70889L9.09636 3.48476C9.33321 3.33521 9.61289 3.19817 9.93474 3.07358C10.2568 2.94907 10.503 2.91477 10.6733 2.9709C10.9466 3.67476 10.971 4.31003 10.746 4.87675C11.226 5.40623 11.4662 6.04785 11.4662 6.80149C11.4662 7.3309 11.4037 7.79948 11.2793 8.20751C11.1548 8.61562 10.9939 8.9424 10.7965 9.18855C10.5989 9.43467 10.3527 9.64178 10.0581 9.80985C9.76335 9.97806 9.47763 10.0995 9.20123 10.1743C8.92471 10.2491 8.61336 10.3053 8.26705 10.3427C8.5829 10.6229 8.74086 11.0651 8.74086 11.6693V13.6405C8.74086 13.7525 8.77885 13.846 8.85489 13.9207C8.93084 13.9952 9.05078 14.0172 9.21486 13.9859C10.6247 13.5064 11.7747 12.6422 12.6648 11.3933C13.5548 10.1446 14 8.73856 14 7.175C13.9997 5.87353 13.6866 4.67311 13.061 3.57374Z" fill="black"/>
</svg>
