<svg width="14" height="14" viewBox="0 0 14 14" fill="none" xmlns="http://www.w3.org/2000/svg">
<path d="M10.6438 9.26128C10.1864 8.80973 9.61543 8.80973 9.16094 9.26128C8.81426 9.60505 8.46757 9.94881 8.12671 10.2984C8.03348 10.3945 7.95482 10.4149 7.8412 10.3508C7.61687 10.2285 7.37798 10.1294 7.16239 9.99543C6.15729 9.36325 5.31534 8.55045 4.56952 7.63568C4.19953 7.18121 3.87032 6.69469 3.64017 6.147C3.59355 6.0363 3.60229 5.96347 3.69261 5.87315C4.03929 5.53813 4.37724 5.19436 4.7181 4.8506C5.19298 4.37282 5.19298 3.81347 4.71519 3.33279C4.44425 3.05894 4.17331 2.79092 3.90237 2.51707C3.62269 2.2374 3.34592 1.95481 3.06333 1.67805C2.60593 1.23232 2.03492 1.23232 1.58044 1.68096C1.23084 2.02473 0.895801 2.37723 0.540374 2.71517C0.211166 3.02689 0.0451061 3.40853 0.0101461 3.85426C-0.0452074 4.57966 0.132506 5.26428 0.383053 5.93142C0.895801 7.31231 1.67658 8.53879 2.62341 9.66331C3.90237 11.184 5.42896 12.3872 7.21483 13.2554C8.01892 13.6457 8.85213 13.9458 9.75818 13.9953C10.3816 14.0303 10.9235 13.873 11.3576 13.3865C11.6548 13.0544 11.9898 12.7514 12.3044 12.4338C12.7706 11.9619 12.7735 11.3909 12.3103 10.9248C11.7567 10.3683 11.2003 9.8148 10.6438 9.26128Z" fill="black"/>
<path d="M10.0875 6.93939L11.1625 6.75585C10.9936 5.76825 10.5274 4.87388 9.81947 4.16304C9.07075 3.41433 8.12391 2.94239 7.08094 2.79672L6.92944 3.87754C7.73644 3.99116 8.4706 4.35532 9.05035 4.93506C9.59806 5.48275 9.9564 6.17611 10.0875 6.93939Z" fill="black"/>
<path d="M11.7683 2.26652C10.5272 1.02547 8.95695 0.241801 7.22352 0L7.07202 1.08082C8.56948 1.29058 9.92709 1.96937 10.9992 3.03854C12.016 4.05527 12.6831 5.34002 12.9249 6.75295L13.9999 6.56941C13.7173 4.93216 12.9453 3.44639 11.7683 2.26652Z" fill="black"/>
</svg>
